<svg width="607" height="106" viewBox="0 0 607 106" fill="none" xmlns="http://www.w3.org/2000/svg">
<g clip-path="url(#clip0_49_3221)">
<path d="M63.9533 32.9433C64.3067 31.7067 64.8367 30.7056 65.5433 29.94C66.25 29.1156 67.0156 28.7033 67.84 28.7033C69.8422 28.7033 71.285 29.0861 72.1683 29.8517C73.0517 30.6172 73.4933 31.9422 73.4933 33.8267C73.4933 34.3567 73.0811 35.8583 72.2567 38.3317C70.4311 43.9261 68.4289 50.8456 66.25 59.09C65.72 60.9744 65.2783 62.6233 64.925 64.0367C64.6306 65.45 64.3656 66.6278 64.13 67.57C62.7167 73.6356 61.48 78.1994 60.42 81.2617C60.0667 82.145 59.4483 82.8517 58.565 83.3817C57.6817 83.8528 56.7394 84.0883 55.7383 84.0883C54.7372 84.0883 53.7361 83.8822 52.735 83.47C51.7928 82.9989 51.1156 82.4689 50.7033 81.88C48.8778 78.2878 46.6106 73.4 43.9017 67.2167C41.2517 60.9744 39.1906 55.5272 37.7183 50.875C34.0672 60.1206 30.7989 69.0422 27.9133 77.64C27.7367 78.17 27.5306 78.7589 27.295 79.4067C27.1183 79.9956 26.9122 80.6139 26.6767 81.2617C26.2644 82.145 25.6756 82.8517 24.91 83.3817C24.1444 83.8528 23.2906 84.0883 22.3483 84.0883C21.2883 84.0883 20.2578 83.8822 19.2567 83.47C18.2556 82.9989 17.5783 82.4689 17.225 81.88C16.4594 80.5844 15.635 78.5822 14.7517 75.8733C13.9272 73.1644 12.8083 69.3661 11.395 64.4783L9.18667 56.97C7.65556 52.0822 6.33056 47.0767 5.21167 41.9533C4.09278 36.83 3.53333 33.7678 3.53333 32.7667C3.53333 31.53 4.15167 30.5583 5.38833 29.8517C6.625 29.0861 7.86167 28.7033 9.09833 28.7033C9.805 28.7033 10.5411 28.9389 11.3067 29.41C12.0722 29.8222 12.5728 30.5583 12.8083 31.6183C14.8694 42.6306 17.9022 55.4094 21.9067 69.955C23.4378 66.3039 25.1161 61.8578 26.9417 56.6167C28.8261 51.3756 30.6222 46.2817 32.33 41.335L33.2133 38.685C33.4489 37.8017 34.0378 37.1244 34.98 36.6533C35.9811 36.1233 36.9822 35.8583 37.9833 35.8583C39.2789 35.8583 40.3389 36.1822 41.1633 36.83C41.9878 37.4778 42.5178 38.1844 42.7533 38.95C42.8122 39.1856 43.99 42.6894 46.2867 49.4617C48.5833 56.2339 51.3217 63.065 54.5017 69.955C55.6794 66.4806 57.0928 60.9156 58.7417 53.26L60.0667 47.43C61.6567 41.1878 62.9522 36.3589 63.9533 32.9433ZM84.7531 27.29C86.8142 27.4667 88.6103 28.0261 90.1414 28.9683C91.6725 29.8517 92.4381 31.2061 92.4381 33.0317C92.4381 34.3861 91.7903 35.4756 90.4947 36.3C89.2581 37.0656 87.7564 37.4483 85.9897 37.4483C84.282 37.4483 83.1042 37.0067 82.4564 36.1233C81.8086 35.24 81.4847 34.3272 81.4847 33.385C81.4847 31.6183 81.6614 30.1461 82.0147 28.9683C82.427 27.7906 83.3397 27.2311 84.7531 27.29ZM91.8197 66.4217V68.9833C91.8197 71.28 91.8786 73.4589 91.9964 75.52C92.1731 77.5222 92.3792 79.5539 92.6147 81.615C92.5558 82.2039 92.1142 82.8222 91.2897 83.47C90.4653 84.0589 89.7292 84.3533 89.0814 84.3533C87.9625 84.3533 86.8142 84.1472 85.6364 83.735C84.5175 83.2639 83.8403 82.7044 83.6047 82.0567C83.2514 80.1722 83.0747 78.4939 83.0747 77.0217C83.0747 72.1928 82.9275 66.775 82.6331 60.7683C82.3975 55.4683 82.2797 51.7583 82.2797 49.6383C82.2797 48.5783 82.8097 47.6656 83.8697 46.9C84.9297 46.1344 86.0486 45.7517 87.2264 45.7517C88.9342 45.7517 90.112 46.1344 90.7597 46.9C91.4664 47.6656 91.8197 48.8728 91.8197 50.5217V66.4217ZM112.742 70.3083C112.742 72.5461 113.066 74.2833 113.714 75.52C114.421 76.6978 115.304 77.2867 116.364 77.2867C116.953 77.2867 117.512 77.2572 118.042 77.1983C118.572 77.0806 119.102 77.0217 119.632 77.0217C120.221 77.0217 120.722 77.3161 121.134 77.905C121.605 78.4939 121.841 79.1417 121.841 79.8483C121.841 81.2617 121.163 82.3806 119.809 83.205C118.513 83.9706 116.747 84.3533 114.509 84.3533C112.919 84.3533 111.3 83.8822 109.651 82.94C108.061 81.9389 106.736 80.4078 105.676 78.3467C104.616 76.2267 104.086 73.6061 104.086 70.485C104.086 63.7717 104.203 58.0889 104.439 53.4367C104.733 47.9011 104.881 40.9228 104.881 32.5017C104.881 29.8517 105.028 27.9967 105.322 26.9367C105.676 26.1122 106.235 25.4939 107.001 25.0817C107.825 24.6106 108.679 24.375 109.562 24.375C110.446 24.375 111.211 24.5222 111.859 24.8167C112.566 25.1111 113.037 25.5822 113.272 26.23C113.508 26.9367 113.655 27.6433 113.714 28.35C113.832 28.9978 113.891 29.94 113.891 31.1767C113.891 33.5911 113.802 35.9172 113.626 38.155C113.508 40.8639 113.449 42.8367 113.449 44.0733C112.978 54.4378 112.742 63.1828 112.742 70.3083ZM164.435 83.5583C163.199 83.5583 162.021 83.205 160.902 82.4983C159.842 81.7328 158.9 80.9378 158.075 80.1133C157.251 79.23 156.691 78.6411 156.397 78.3467C155.16 80.1133 153.364 81.5561 151.009 82.675C148.653 83.7939 146.386 84.3533 144.207 84.3533C140.85 84.3533 137.876 83.6467 135.285 82.2333C132.694 80.82 130.692 78.9061 129.279 76.4917C127.865 74.0183 127.159 71.28 127.159 68.2767C127.159 65.45 127.482 62.7411 128.13 60.15C128.837 57.5 129.779 55.2917 130.957 53.525C132.547 51.2872 134.667 49.5206 137.317 48.225C140.026 46.9294 142.705 46.2817 145.355 46.2817C146.945 46.2817 148.447 46.5761 149.86 47.165C151.274 47.7539 152.51 48.49 153.57 49.3733C153.57 45.4867 153.541 43.0428 153.482 42.0417V40.0983C153.482 34.5628 153.835 30.5289 154.542 27.9967C155.19 25.5233 156.78 24.2867 159.312 24.2867C160.666 24.2867 161.667 24.5811 162.315 25.17C162.963 25.7589 163.287 26.8778 163.287 28.5267C163.287 29.1156 163.14 30.735 162.845 33.385C162.197 39.9806 161.874 46.5761 161.874 53.1717C161.874 58.7072 161.962 62.8294 162.139 65.5383C162.374 68.1883 162.816 70.3083 163.464 71.8983C164.17 73.4883 165.26 74.9017 166.732 76.1383C167.615 76.845 168.234 77.4339 168.587 77.905C168.999 78.3761 169.205 78.9944 169.205 79.76C169.205 80.7022 168.734 81.5856 167.792 82.41C166.85 83.1756 165.731 83.5583 164.435 83.5583ZM143.942 77.1983C147.063 77.1983 149.36 76.2267 150.832 74.2833C152.363 72.2811 153.129 69.7489 153.129 66.6867L153.04 61.74C152.981 60.7978 152.952 59.5317 152.952 57.9417C150.773 55.3506 148.417 54.055 145.885 54.055C144.177 54.055 142.558 54.4967 141.027 55.38C139.555 56.2633 138.347 57.5589 137.405 59.2667C136.404 61.21 135.904 64.1544 135.904 68.1C135.904 70.8089 136.699 73.0172 138.289 74.725C139.879 76.3739 141.763 77.1983 143.942 77.1983ZM206.849 54.4967C206.849 55.7333 206.584 56.6756 206.054 57.3233C205.583 57.9711 204.788 58.295 203.669 58.295C202.845 58.295 202.138 58.0889 201.549 57.6767C201.019 57.2644 200.312 56.5578 199.429 55.5567C198.722 54.7911 197.898 54.1728 196.956 53.7017C196.072 53.2306 195.277 52.995 194.571 52.995C190.978 52.995 188.387 53.7606 186.797 55.2917C185.796 56.3517 184.972 57.765 184.324 59.5317C183.676 61.2394 183.352 63.0061 183.352 64.8317C183.352 67.4817 183.735 69.6017 184.501 71.1917C185.266 72.7817 186.621 74.1361 188.564 75.255C189.271 75.6672 190.272 76.0206 191.567 76.315C192.863 76.5506 193.923 76.6683 194.747 76.6683C195.866 76.6683 197.044 76.3739 198.281 75.785C199.517 75.1372 200.577 74.3128 201.461 73.3117C202.58 72.0161 203.934 71.3683 205.524 71.3683C206.172 71.3683 206.908 71.6922 207.732 72.34C208.616 72.9878 209.057 73.7533 209.057 74.6367C209.057 76.4033 208.203 78.0522 206.496 79.5833C204.847 81.0556 202.815 82.2333 200.401 83.1167C197.986 83.9411 195.748 84.3533 193.687 84.3533C190.213 84.3533 186.974 83.5583 183.971 81.9683C181.026 80.3783 178.671 78.1994 176.904 75.4317C175.137 72.605 174.254 69.425 174.254 65.8917C174.254 62.8294 174.813 59.8556 175.932 56.97C177.11 54.0844 178.671 51.7289 180.614 49.9033C182.204 48.4311 184.177 47.3417 186.532 46.635C188.888 45.9283 191.361 45.575 193.952 45.575C195.778 45.575 197.662 45.9283 199.606 46.635C201.549 47.3417 203.11 48.2839 204.287 49.4617C205.995 51.1694 206.849 52.8478 206.849 54.4967ZM250.11 84.3533C248.108 84.3533 246.577 84.0589 245.517 83.47C244.457 82.8222 243.309 81.6444 242.072 79.9367C240.541 81.2911 238.244 82.3806 235.182 83.205C232.179 84.0294 229.588 84.4417 227.409 84.4417C223.816 84.4417 220.901 83.47 218.664 81.5267C216.485 79.5244 215.395 76.6094 215.395 72.7817C215.395 71.1328 215.837 69.6311 216.72 68.2767C217.663 66.8633 218.87 65.6267 220.342 64.5667C221.991 63.4478 223.934 62.5644 226.172 61.9167C228.469 61.2689 230.559 60.945 232.444 60.945C235.624 60.945 238.45 61.2394 240.924 61.8283V61.74C240.924 58.56 240.129 56.3811 238.539 55.2033C237.008 53.9667 234.534 53.3483 231.119 53.3483C228.94 53.3483 227.055 54.32 225.465 56.2633C224.876 57.0289 223.64 57.4117 221.755 57.4117C220.813 57.4117 220.106 57.0289 219.635 56.2633C219.223 55.4389 219.017 54.6144 219.017 53.79C219.017 52.0822 219.724 50.61 221.137 49.3733C222.609 48.1367 224.376 47.2239 226.437 46.635C228.498 45.9872 230.412 45.6633 232.179 45.6633C233.886 45.6633 235.918 46.0167 238.274 46.7233C240.629 47.43 242.543 48.3722 244.015 49.55C245.782 51.0811 247.136 52.8772 248.079 54.9383C249.08 56.9406 249.58 59.1489 249.58 61.5633C249.58 62.3289 249.521 63.4772 249.404 65.0083C249.286 66.775 249.227 68.2178 249.227 69.3367C249.227 69.8667 249.168 70.5439 249.05 71.3683C248.933 72.4283 248.874 73.3117 248.874 74.0183C248.874 74.7839 249.109 75.52 249.58 76.2267C250.051 76.9333 250.699 77.5222 251.524 77.9933C252.289 78.4056 252.79 78.8472 253.025 79.3183C253.261 79.7894 253.379 80.3194 253.379 80.9083C253.379 81.4972 252.996 82.2333 252.23 83.1167C251.524 83.9411 250.817 84.3533 250.11 84.3533ZM232.444 67.4817C230.147 67.4817 228.115 67.9233 226.349 68.8067C224.582 69.69 223.699 71.2506 223.699 73.4883C223.699 74.6072 224.081 75.5494 224.847 76.315C225.671 77.0806 226.555 77.4633 227.497 77.4633C230.029 77.4633 232.149 77.1983 233.857 76.6683C235.565 76.1383 237.626 75.1667 240.04 73.7533C240.335 72.8111 240.511 71.4861 240.57 69.7783C240.57 69.1306 240.6 68.63 240.659 68.2767C237.479 67.7467 234.74 67.4817 232.444 67.4817ZM273.094 80.4667C273.094 81.4678 272.711 82.3511 271.945 83.1167C271.18 83.8822 270.237 84.265 269.119 84.265C267.352 84.265 266.056 83.9411 265.232 83.2933C264.407 82.5867 263.995 81.3206 263.995 79.495C263.995 77.3161 263.936 74.46 263.819 70.9267C263.701 67.9822 263.642 65.5089 263.642 63.5067C263.642 62.5644 263.701 61.3278 263.819 59.7967C263.936 58.3833 263.995 57.3233 263.995 56.6167C263.819 55.4978 263.377 54.585 262.67 53.8783C261.964 53.1128 261.051 52.73 259.932 52.73C259.402 52.73 258.96 52.4944 258.607 52.0233C258.254 51.4933 258.077 50.9633 258.077 50.4333C258.077 49.0789 258.607 48.0483 259.667 47.3417C260.786 46.635 262.111 46.2817 263.642 46.2817C266.822 46.2817 269.03 48.1661 270.267 51.935C271.798 50.1683 273.535 48.755 275.479 47.695C277.481 46.5761 279.395 46.0167 281.22 46.0167C283.399 46.0167 285.372 46.6056 287.139 47.7833C288.964 48.9611 289.877 50.5511 289.877 52.5533C289.877 53.6722 289.376 54.8206 288.375 55.9983C287.433 57.1761 286.461 57.765 285.46 57.765C284.93 57.765 284.459 57.6472 284.047 57.4117C283.694 57.1172 283.252 56.705 282.722 56.175C282.133 55.5861 281.632 55.1739 281.22 54.9383C280.808 54.6439 280.337 54.4967 279.807 54.4967C278.865 54.4967 277.981 54.6439 277.157 54.9383C276.332 55.2328 275.773 55.5861 275.479 55.9983C274.536 57.4706 273.83 58.7956 273.359 59.9733C272.946 61.1511 272.74 62.4172 272.74 63.7717C272.74 64.7728 272.711 65.5678 272.652 66.1567L272.564 71.1917C272.564 71.9572 272.593 72.8111 272.652 73.7533C272.711 74.6956 272.77 75.4022 272.829 75.8733C273.005 77.4633 273.094 78.9944 273.094 80.4667ZM331.699 83.5583C330.463 83.5583 329.285 83.205 328.166 82.4983C327.106 81.7328 326.164 80.9378 325.339 80.1133C324.515 79.23 323.955 78.6411 323.661 78.3467C322.424 80.1133 320.628 81.5561 318.273 82.675C315.917 83.7939 313.65 84.3533 311.471 84.3533C308.114 84.3533 305.14 83.6467 302.549 82.2333C299.958 80.82 297.956 78.9061 296.543 76.4917C295.129 74.0183 294.423 71.28 294.423 68.2767C294.423 65.45 294.746 62.7411 295.394 60.15C296.101 57.5 297.043 55.2917 298.221 53.525C299.811 51.2872 301.931 49.5206 304.581 48.225C307.29 46.9294 309.969 46.2817 312.619 46.2817C314.209 46.2817 315.711 46.5761 317.124 47.165C318.538 47.7539 319.774 48.49 320.834 49.3733C320.834 45.4867 320.805 43.0428 320.746 42.0417V40.0983C320.746 34.5628 321.099 30.5289 321.806 27.9967C322.454 25.5233 324.044 24.2867 326.576 24.2867C327.93 24.2867 328.931 24.5811 329.579 25.17C330.227 25.7589 330.551 26.8778 330.551 28.5267C330.551 29.1156 330.404 30.735 330.109 33.385C329.461 39.9806 329.138 46.5761 329.138 53.1717C329.138 58.7072 329.226 62.8294 329.403 65.5383C329.638 68.1883 330.08 70.3083 330.728 71.8983C331.434 73.4883 332.524 74.9017 333.996 76.1383C334.879 76.845 335.498 77.4339 335.851 77.905C336.263 78.3761 336.469 78.9944 336.469 79.76C336.469 80.7022 335.998 81.5856 335.056 82.41C334.114 83.1756 332.995 83.5583 331.699 83.5583ZM311.206 77.1983C314.327 77.1983 316.624 76.2267 318.096 74.2833C319.627 72.2811 320.393 69.7489 320.393 66.6867L320.304 61.74C320.245 60.7978 320.216 59.5317 320.216 57.9417C318.037 55.3506 315.681 54.055 313.149 54.055C311.441 54.055 309.822 54.4967 308.291 55.38C306.819 56.2633 305.611 57.5589 304.669 59.2667C303.668 61.21 303.168 64.1544 303.168 68.1C303.168 70.8089 303.963 73.0172 305.553 74.725C307.143 76.3739 309.027 77.1983 311.206 77.1983ZM434.042 80.4667C433.924 81.4678 433.512 82.3511 432.805 83.1167C432.098 83.8822 431.186 84.265 430.067 84.265C428.3 84.265 427.004 83.9411 426.18 83.2933C425.356 82.5867 424.943 81.3206 424.943 79.495C424.943 77.0217 425.091 74.3128 425.385 71.3683C425.621 67.9528 425.738 65.3322 425.738 63.5067C425.738 62.5644 425.679 61.3867 425.562 59.9733C425.444 58.6778 425.385 57.7061 425.385 57.0583C425.208 56.0572 424.796 55.2622 424.148 54.6733C423.559 54.0844 422.617 53.5839 421.322 53.1717C420.792 52.9361 420.35 52.5533 419.997 52.0233C419.643 51.4344 419.467 50.9044 419.467 50.4333C419.467 49.0789 419.997 48.0483 421.057 47.3417C422.117 46.635 423.412 46.2817 424.943 46.2817C426.651 46.2817 428.123 46.8706 429.36 48.0483C430.597 49.2261 431.539 50.6983 432.187 52.465C433.541 50.5217 435.19 48.9611 437.133 47.7833C439.136 46.6056 441.079 46.0167 442.963 46.0167C445.378 46.0167 447.409 46.4289 449.058 47.2533C450.766 48.0189 451.62 49.3733 451.62 51.3167C451.62 52.4356 451.119 53.6133 450.118 54.85C449.176 56.0278 448.204 56.6167 447.203 56.6167C446.438 56.6167 445.525 56.2633 444.465 55.5567C444.053 55.2622 443.582 55.0267 443.052 54.85C442.581 54.6144 442.08 54.4967 441.55 54.4967C440.608 54.4967 439.724 54.6439 438.9 54.9383C438.076 55.2328 437.516 55.5861 437.222 55.9983C436.279 57.4706 435.573 58.7956 435.102 59.9733C434.689 61.1511 434.483 62.4172 434.483 63.7717C434.483 64.7728 434.454 65.5678 434.395 66.1567L434.307 71.1917L434.395 74.5483C434.395 77.0217 434.277 78.9944 434.042 80.4667ZM461.377 27.29C463.439 27.4667 465.235 28.0261 466.766 28.9683C468.297 29.8517 469.062 31.2061 469.062 33.0317C469.062 34.3861 468.415 35.4756 467.119 36.3C465.882 37.0656 464.381 37.4483 462.614 37.4483C460.906 37.4483 459.729 37.0067 459.081 36.1233C458.433 35.24 458.109 34.3272 458.109 33.385C458.109 31.6183 458.286 30.1461 458.639 28.9683C459.051 27.7906 459.964 27.2311 461.377 27.29ZM468.444 66.4217V68.9833C468.444 71.28 468.503 73.4589 468.621 75.52C468.797 77.5222 469.004 79.5539 469.239 81.615C469.18 82.2039 468.739 82.8222 467.914 83.47C467.09 84.0589 466.354 84.3533 465.706 84.3533C464.587 84.3533 463.439 84.1472 462.261 83.735C461.142 83.2639 460.465 82.7044 460.229 82.0567C459.876 80.1722 459.699 78.4939 459.699 77.0217C459.699 72.1928 459.552 66.775 459.257 60.7683C459.022 55.4683 458.904 51.7583 458.904 49.6383C458.904 48.5783 459.434 47.6656 460.494 46.9C461.554 46.1344 462.673 45.7517 463.851 45.7517C465.559 45.7517 466.736 46.1344 467.384 46.9C468.091 47.6656 468.444 48.8728 468.444 50.5217V66.4217ZM499.967 61.2983C500.143 60.8272 500.762 59.1194 501.822 56.175C502.941 53.2306 503.971 50.9928 504.913 49.4617C506.444 47.0472 507.799 45.84 508.977 45.84C510.626 45.84 511.892 46.1639 512.775 46.8117C513.658 47.4006 514.1 48.2544 514.1 49.3733C514.1 49.9033 513.864 50.6394 513.393 51.5817C512.981 52.5239 512.746 53.0833 512.687 53.26C510.331 58.4422 508.211 64.0072 506.327 69.955L504.472 76.845C503.765 79.0828 502.558 80.9083 500.85 82.3217C499.142 83.6761 497.14 84.3533 494.843 84.3533C492.782 84.3533 490.868 83.4111 489.102 81.5267C488.042 79.8778 486.923 77.7872 485.745 75.255C484.626 72.7228 483.654 70.2494 482.83 67.835L479.738 58.56C479.091 56.7344 478.561 55.1739 478.148 53.8783C477.795 52.5828 477.618 51.405 477.618 50.345C477.559 49.1083 477.913 48.1072 478.678 47.3417C479.444 46.5761 480.504 46.1933 481.858 46.1933C483.389 46.1933 484.479 46.5172 485.127 47.165C485.774 47.7539 486.363 48.6961 486.893 49.9917C487.129 51.3461 487.777 54.1139 488.837 58.295L489.455 60.7683C489.985 62.7706 490.662 64.8022 491.487 66.8633C492.311 68.9244 493.136 70.8972 493.96 72.7817C493.842 72.4872 494.254 73.4589 495.197 75.6967C495.786 73.9889 496.463 71.8983 497.228 69.425L499.967 61.2983ZM524.867 27.29C526.928 27.4667 528.724 28.0261 530.255 28.9683C531.786 29.8517 532.552 31.2061 532.552 33.0317C532.552 34.3861 531.904 35.4756 530.609 36.3C529.372 37.0656 527.87 37.4483 526.104 37.4483C524.396 37.4483 523.218 37.0067 522.57 36.1233C521.923 35.24 521.599 34.3272 521.599 33.385C521.599 31.6183 521.775 30.1461 522.129 28.9683C522.541 27.7906 523.454 27.2311 524.867 27.29ZM531.934 66.4217V68.9833C531.934 71.28 531.993 73.4589 532.11 75.52C532.287 77.5222 532.493 79.5539 532.729 81.615C532.729 82.3217 532.316 82.9694 531.492 83.5583C530.668 84.0883 529.902 84.3533 529.195 84.3533C528.076 84.3533 526.928 84.1472 525.75 83.735C524.631 83.2639 523.954 82.7044 523.719 82.0567C523.365 80.1722 523.189 78.4939 523.189 77.0217C523.189 72.1928 523.041 66.775 522.747 60.7683C522.511 55.4683 522.394 51.7583 522.394 49.6383C522.394 48.5783 522.924 47.6656 523.984 46.9C525.044 46.1344 526.163 45.7517 527.34 45.7517C529.048 45.7517 530.226 46.1344 530.874 46.9C531.58 47.6656 531.934 48.8728 531.934 50.5217V66.4217ZM583.066 79.76C583.066 81.0556 582.36 82.145 580.946 83.0283C579.533 83.9117 578.237 84.3533 577.06 84.3533C574.881 84.3533 573.114 84.0883 571.76 83.5583C570.464 82.9694 569.227 81.9094 568.05 80.3783C566.577 81.7328 564.516 82.7633 561.866 83.47C559.216 84.1178 556.772 84.4417 554.535 84.4417C550.883 84.4417 547.851 83.47 545.436 81.5267C543.081 79.5244 541.903 76.6094 541.903 72.7817C541.903 71.1328 542.403 69.4839 543.405 67.835C544.406 66.1272 545.642 64.7728 547.115 63.7717C548.705 62.7117 550.501 62.005 552.503 61.6517C554.505 61.2394 556.831 61.0333 559.481 61.0333C560.718 61.0333 562.19 61.2689 563.898 61.74C565.606 62.2111 566.96 62.7117 567.961 63.2417V61.8283C567.961 58.6483 567.166 56.4694 565.576 55.2917C564.045 54.055 561.572 53.4367 558.156 53.4367C557.096 53.4367 556.125 53.6133 555.241 53.9667C554.417 54.2611 553.445 54.7028 552.326 55.2917C551.266 55.8806 550.265 56.175 549.323 56.175C548.498 56.175 547.703 55.8511 546.938 55.2033C546.172 54.4967 545.79 53.7606 545.79 52.995C545.79 50.5217 547.321 48.7256 550.383 47.6067C553.504 46.4289 556.684 45.84 559.923 45.84C561.572 45.84 563.456 46.1933 565.576 46.9C567.696 47.5478 569.492 48.4606 570.965 49.6383C572.731 51.1106 574.086 52.8772 575.028 54.9383C576.029 56.9994 576.53 59.2372 576.53 61.6517C576.53 62.4172 576.471 63.5656 576.353 65.0967C576.235 66.7456 576.176 68.1589 576.176 69.3367L576.088 71.7217C575.97 73.0172 575.911 74.0478 575.911 74.8133C575.911 75.52 576.147 76.1383 576.618 76.6683C577.148 77.1394 577.766 77.375 578.473 77.375L580.946 77.2867C581.594 77.2867 582.095 77.5517 582.448 78.0817C582.86 78.5528 583.066 79.1122 583.066 79.76ZM554.535 77.4633C557.067 77.4633 559.187 77.1983 560.895 76.6683C562.602 76.1383 564.663 75.1667 567.078 73.7533C567.313 72.7522 567.461 71.4272 567.52 69.7783C564.281 68.2472 561.601 67.4817 559.481 67.4817C557.479 67.4817 555.86 67.57 554.623 67.7467C553.386 67.8644 552.267 68.365 551.266 69.2483C550.265 70.1317 549.765 71.545 549.765 73.4883C549.765 74.6072 550.295 75.5494 551.355 76.315C552.473 77.0806 553.533 77.4633 554.535 77.4633ZM599.81 32.7667C599.81 35.9467 599.634 40.5989 599.28 46.7233C598.927 52.6122 598.75 57.1172 598.75 60.2383C598.75 61.0628 598.809 62.7706 598.927 65.3617C598.868 66.3628 598.515 67.1283 597.867 67.6583C597.219 68.1294 596.454 68.365 595.57 68.365C594.628 68.365 593.774 68.1294 593.009 67.6583C592.243 67.1872 591.772 66.5689 591.595 65.8033C590.889 60.9744 590.535 55.2033 590.535 48.49L590.624 34.71C590.624 32.5311 590.889 30.7644 591.419 29.41C592.007 27.9967 593.244 27.29 595.129 27.29C596.719 27.29 597.896 27.82 598.662 28.88C599.427 29.8811 599.81 31.1767 599.81 32.7667ZM595.129 72.9583C599.133 72.9583 601.135 74.46 601.135 77.4633C601.135 78.9944 600.635 80.4078 599.634 81.7033C598.691 82.94 597.484 83.5583 596.012 83.5583C594.245 83.5583 592.802 83.0283 591.684 81.9683C590.565 80.8494 590.005 79.5539 590.005 78.0817C590.005 76.7861 590.476 75.6083 591.419 74.5483C592.42 73.4883 593.656 72.9583 595.129 72.9583Z" fill="white"/>
<path d="M410.95 11.406C416.43 10.2201 421.833 13.701 423.019 19.1808C424.205 24.6608 420.724 30.0647 415.244 31.2505L413.546 31.6179C407.205 32.99 403.135 39.1928 404.4 45.5562L409.593 71.6754C410.758 77.5309 406.955 83.2214 401.099 84.3855C395.244 85.5495 389.554 81.7465 388.389 75.8913L383.502 51.3072C382.12 44.359 375.312 39.8917 368.388 41.3902L365.921 41.9241C360.442 43.1101 355.038 39.6293 353.852 34.1496C352.666 28.6699 356.147 23.2664 361.627 22.0805L410.95 11.406Z" fill="#F2D405"/>
<path d="M365.921 41.9241L366.556 44.8562L365.921 41.9241ZM388.389 75.8913L385.447 76.4763L388.389 75.8913ZM409.593 71.6754L406.651 72.2604V72.2604L409.593 71.6754ZM404.4 45.5562L401.458 46.1413V46.1413L404.4 45.5562ZM423.019 19.1808L420.087 19.8154L423.019 19.1808ZM415.244 31.2505L414.61 28.3184L412.912 28.6857L413.546 31.6179L414.181 34.55L415.879 34.1827L415.244 31.2505ZM404.4 45.5562L401.458 46.1413L406.651 72.2604L409.593 71.6754L412.536 71.0904L407.343 44.9712L404.4 45.5562ZM388.389 75.8913L391.332 75.3063L386.444 50.7222L383.502 51.3072L380.559 51.8922L385.447 76.4763L388.389 75.8913ZM368.388 41.3902L367.754 38.4581L365.287 38.992L365.921 41.9241L366.556 44.8562L369.023 44.3223L368.388 41.3902ZM361.627 22.0805L362.261 25.0126L411.584 14.3382L410.95 11.406L410.315 8.47392L360.992 19.1483L361.627 22.0805ZM353.852 34.1496L356.784 33.5151C355.949 29.6547 358.401 25.848 362.261 25.0126L361.627 22.0805L360.992 19.1483C353.893 20.6847 349.384 27.6852 350.92 34.7842L353.852 34.1496ZM365.921 41.9241L365.287 38.992C361.426 39.8275 357.62 37.3754 356.784 33.5151L353.852 34.1496L350.92 34.7842C352.456 41.8833 359.457 46.3927 366.556 44.8562L365.921 41.9241ZM383.502 51.3072L386.444 50.7222C384.736 42.1295 376.316 36.6049 367.754 38.4581L368.388 41.3902L369.023 44.3223C374.308 43.1785 379.505 46.5884 380.559 51.8922L383.502 51.3072ZM401.099 84.3855L400.514 81.4431C396.284 82.284 392.173 79.5365 391.332 75.3063L388.389 75.8913L385.447 76.4763C386.934 83.9565 394.204 88.8149 401.684 87.3279L401.099 84.3855ZM409.593 71.6754L406.651 72.2604C407.492 76.4908 404.745 80.6021 400.514 81.4431L401.099 84.3855L401.684 87.3279C409.165 85.8408 414.023 78.5709 412.536 71.0904L409.593 71.6754ZM413.546 31.6179L412.912 28.6857C404.971 30.4041 399.873 38.1721 401.458 46.1413L404.4 45.5562L407.343 44.9712C406.397 40.2135 409.44 35.5759 414.181 34.55L413.546 31.6179ZM423.019 19.1808L420.087 19.8154C420.923 23.676 418.47 27.483 414.61 28.3184L415.244 31.2505L415.879 34.1827C422.978 32.6464 427.488 25.6457 425.951 18.5462L423.019 19.1808ZM423.019 19.1808L425.951 18.5462C424.415 11.447 417.414 6.93752 410.315 8.47392L410.95 11.406L411.584 14.3382C415.445 13.5027 419.252 15.9549 420.087 19.8154L423.019 19.1808Z" fill="white"/>
</g>
<defs>
<clipPath id="clip0_49_3221">
<rect width="607" height="106" fill="white"/>
</clipPath>
</defs>
</svg>
