<svg width="255" height="255" viewBox="0 0 255 255" fill="none" xmlns="http://www.w3.org/2000/svg">
<g clip-path="url(#clip0_67_3391)">
<rect width="255" height="255" rx="40" fill="#F6D705" fill-opacity="0.24"/>
<path d="M225.041 132.473C223.053 158.599 200.261 178.166 174.135 176.178L163.055 175.335C136.929 173.346 114.138 192.914 112.149 219.04L111.386 229.071C109.397 255.197 86.6057 274.765 60.4796 272.776L32.649 270.658C6.52283 268.67 -13.0446 245.878 -11.0562 219.752L-9.36921 197.587C-7.8908 178.162 -22.4392 161.217 -41.864 159.738C-61.2888 158.26 -75.8372 141.314 -74.3588 121.89L-70.585 72.3056C-68.5966 46.1794 -45.8052 26.612 -19.679 28.6004L184.186 44.1165C210.313 46.1049 229.88 68.8963 227.892 95.0225L225.041 132.473Z" fill="#F6D705"/>
<circle cx="153.151" cy="113.254" r="19.7677" transform="rotate(4.35236 153.151 113.254)" fill="white"/>
<path d="M155.363 93.4802C165.899 94.6879 173.68 104.022 172.868 114.687C172.248 122.843 166.777 129.47 159.498 131.958C151.326 127.976 145.994 119.299 146.725 109.684C147.23 103.051 150.521 97.298 155.363 93.4802Z" fill="black"/>
<circle cx="92.0484" cy="108.602" r="19.7677" transform="rotate(4.35236 92.0484 108.602)" fill="white"/>
<path d="M94.3925 88.8209C104.928 90.0286 112.71 99.3627 111.898 110.028C111.277 118.184 105.807 124.81 98.5284 127.298C90.3569 123.316 85.0243 114.64 85.7561 105.025C86.2609 98.3922 89.5511 92.6387 94.3925 88.8209Z" fill="black"/>
<path d="M108.098 137.542C110.31 139.674 116.085 143.72 121.488 142.852C126.892 141.983 130.653 139.492 131.859 138.355" stroke="black" stroke-width="5.9303" stroke-linecap="round"/>
<path d="M198.137 25.2539V37.2749" stroke="#F6D705" stroke-width="2" stroke-linecap="round"/>
<path d="M215.305 44.0195C215.292 44.0195 215.279 44.0195 216.256 42.722C217.233 41.4244 219.2 38.8293 220.254 37.4106C221.307 35.992 221.386 35.8284 221.468 35.5645" stroke="#F6D705" stroke-width="2" stroke-linecap="round"/>
<path d="M221.014 55.9609H234.153" stroke="#F6D705" stroke-width="2" stroke-linecap="round"/>
</g>
<defs>
<clipPath id="clip0_67_3391">
<rect width="255" height="255" rx="40" fill="white"/>
</clipPath>
</defs>
</svg>
