<svg width="56" height="56" viewBox="0 0 56 56" fill="none" xmlns="http://www.w3.org/2000/svg">
<rect width="56" height="56" rx="28" fill="#F6F8FB"/>
<path d="M27.5 4L35.9259 15.9027L49.8498 20.2381L41.1334 31.9298L41.313 46.5119L27.5 41.835L13.687 46.5119L13.8666 31.9298L5.15017 20.2381L19.0741 15.9027L27.5 4Z" fill="#AAAAAA"/>
<circle cx="2.88344" cy="2.88344" r="2.88344" transform="matrix(-0.947167 0.320739 0.320739 0.947167 29.491 18.7217)" fill="white"/>
<path fill-rule="evenodd" clip-rule="evenodd" d="M26.6612 19.6641C25.214 20.2147 24.4498 21.8143 24.9506 23.2931C25.3334 24.423 26.346 25.16 27.4645 25.2483C28.4746 24.3901 28.9145 22.9724 28.4636 21.6406C28.1529 20.723 27.4817 20.0289 26.6612 19.6641Z" fill="black"/>
<circle cx="2.88344" cy="2.88344" r="2.88344" transform="matrix(-0.947167 0.320739 0.320739 0.947167 22.1738 21.2124)" fill="white"/>
<path fill-rule="evenodd" clip-rule="evenodd" d="M19.3248 22.1592C17.8776 22.7098 17.1134 24.3094 17.6142 25.7882C17.9969 26.9178 19.009 27.6551 20.1271 27.7438C21.1377 26.8856 21.5781 25.4678 21.1272 24.1357C20.8165 23.2181 20.1452 22.524 19.3248 22.1592Z" fill="black"/>
</svg>
