<svg width="56" height="56" viewBox="0 0 56 56" fill="none" xmlns="http://www.w3.org/2000/svg">
<rect width="56" height="56" rx="28" fill="#F6F8FB"/>
<circle cx="27.9259" cy="27.9259" r="21.9259" fill="#ECE8D9"/>
<ellipse cx="4.12701" cy="3.51294" rx="4.12701" ry="3.51294" transform="matrix(-0.121633 -0.992575 -0.985606 0.16906 30.5728 26.6406)" fill="white"/>
<path d="M30.0731 22.3952C29.7331 20.2114 27.9916 18.7183 26.1181 19.0397C24.6859 19.2853 23.5827 20.5221 23.2306 22.0775C24.0319 23.7282 25.6271 24.7196 27.3162 24.4298C28.4811 24.23 29.4572 23.4608 30.0731 22.3952Z" fill="black"/>
<ellipse cx="4.1355" cy="3.50293" rx="4.1355" ry="3.50293" transform="matrix(0.066861 -0.997762 -0.99563 -0.0933886 20.3826 27.6011)" fill="white"/>
<path d="M20.6942 23.3037C20.7716 21.0845 19.3521 19.1725 17.4646 18.9955C16.0219 18.8601 14.7154 19.7773 14.0811 21.2019C14.554 23.0211 15.9235 24.4053 17.6246 24.565C18.7978 24.6751 19.8944 24.1813 20.6942 23.3037Z" fill="black"/>
</svg>
