<svg width="56" height="56" viewBox="0 0 56 56" fill="none" xmlns="http://www.w3.org/2000/svg">
<rect width="56" height="56" rx="28" fill="#F6F8FB"/>
<path d="M32 8L52.7846 20V44L32 56L11.2154 44V20L32 8Z" fill="#7A8CF0"/>
<circle cx="2.96296" cy="2.96296" r="2.96296" transform="matrix(-0.967773 -0.251824 -0.251824 0.967773 36.0747 30.9053)" fill="white"/>
<path d="M33.1103 30.1161C31.5577 29.7744 30.0001 30.7187 29.5962 32.2704C29.2875 33.4567 29.7411 34.6616 30.6518 35.3684C32.0039 35.2013 33.1818 34.2315 33.5457 32.8329C33.7967 31.8683 33.6106 30.8928 33.1103 30.1161Z" fill="black"/>
<circle cx="2.96296" cy="2.96296" r="2.96296" transform="matrix(-0.967773 -0.251824 -0.251824 0.967773 28.3521 28.8955)" fill="white"/>
<path d="M25.3689 28.0995C23.8161 27.7577 22.2586 28.702 21.8547 30.2538C21.546 31.4402 21.9996 32.645 22.9104 33.3518C24.2624 33.1847 25.4403 32.2148 25.8042 30.8163C26.0552 29.8518 25.8691 28.8762 25.3689 28.0995Z" fill="black"/>
</svg>
