<svg width="56" height="56" viewBox="0 0 56 56" fill="none" xmlns="http://www.w3.org/2000/svg">
<g clip-path="url(#clip0_47_3108)">
<rect width="56" height="56" rx="28" fill="#F6F8FB"/>
<path d="M26.4664 4.48858L52 24.8505L19.6702 65.3917L-5.86338 45.0298L0.379764 20.5092L26.4664 4.48858Z" fill="#FFDFDF"/>
<circle cx="3.79562" cy="3.79562" r="3.79562" transform="matrix(0.567684 -0.823247 -0.823247 -0.567684 33.1331 34.0708)" fill="white"/>
<path d="M35.3823 30.8471C36.4736 29.1279 36.0193 26.8392 34.3285 25.6733C33.0359 24.7819 31.3869 24.8 30.1371 25.5861C29.7455 27.2871 30.3965 29.1303 31.9208 30.1815C32.9721 30.9063 34.228 31.1092 35.3823 30.8471Z" fill="black"/>
<circle cx="3.79562" cy="3.79562" r="3.79562" transform="matrix(0.697334 -0.716746 -0.716746 -0.697334 21.9924 34.1636)" fill="white"/>
<path d="M24.7689 31.3452C26.1323 29.8326 26.067 27.5002 24.5949 26.068C23.4695 24.9732 21.8408 24.7151 20.4771 25.2813C19.8066 26.8928 20.1404 28.819 21.4674 30.1102C22.3827 31.0006 23.5871 31.4106 24.7689 31.3452Z" fill="black"/>
</g>
<defs>
<clipPath id="clip0_47_3108">
<rect width="56" height="56" rx="28" fill="white"/>
</clipPath>
</defs>
</svg>
