<svg width="56" height="56" viewBox="0 0 56 56" fill="none" xmlns="http://www.w3.org/2000/svg">
<rect width="56" height="56" rx="28" fill="#F6F8FB"/>
<path d="M27.8519 4L50.5363 20.5836L41.8716 47.4164H13.8321L5.16739 20.5836L27.8519 4Z" fill="#FDA490"/>
<circle cx="2.96296" cy="2.96296" r="2.96296" transform="matrix(-1 0 0 1 37.4814 16.4639)" fill="white"/>
<path d="M34.4138 16.4468C32.8251 16.507 31.5556 17.8131 31.5554 19.4165C31.5554 20.6424 32.2978 21.6942 33.3572 22.1489C34.6236 21.6467 35.5193 20.4115 35.5193 18.9663C35.5193 17.9697 35.0936 17.0724 34.4138 16.4468Z" fill="black"/>
<circle cx="2.96296" cy="2.96296" r="2.96296" transform="matrix(-1 0 0 1 29.5015 16.4639)" fill="white"/>
<path d="M26.4138 16.4443C24.825 16.5045 23.5555 17.8106 23.5554 19.4141C23.5554 20.64 24.2978 21.6918 25.3572 22.1465C26.6235 21.6442 27.5192 20.409 27.5193 18.9639C27.5193 17.9672 27.0935 17.07 26.4138 16.4443Z" fill="black"/>
</svg>
