<svg width="56" height="56" viewBox="0 0 56 56" fill="none" xmlns="http://www.w3.org/2000/svg">
<rect width="56" height="56" rx="28" fill="#F6F8FB"/>
<path d="M32 8L48.9706 15.0294L56 32L48.9706 48.9706L32 56L15.0294 48.9706L8 32L15.0294 15.0294L32 8Z" fill="#FFCF7F"/>
<circle cx="2.96296" cy="2.96296" r="2.96296" transform="matrix(-0.0729081 -0.997339 -0.997339 0.0729081 22.342 36.3447)" fill="white"/>
<path d="M22.1355 33.2842C21.9596 31.7041 20.5644 30.5332 18.9652 30.6499C17.7426 30.7393 16.7477 31.5564 16.3715 32.6461C16.9647 33.8725 18.2619 34.6758 19.7032 34.5704C20.6972 34.4977 21.5611 34.0077 22.1355 33.2842Z" fill="black"/>
<circle cx="2.96296" cy="2.96296" r="2.96296" transform="matrix(-0.0328359 -0.999461 -0.999461 0.0328359 29.3755 32.9062)" fill="white"/>
<path d="M29.2933 29.8194C29.1809 28.2335 27.8339 27.0075 26.2313 27.0601C25.0061 27.1004 23.9792 27.8769 23.5595 28.9506C24.1031 30.1998 25.367 31.0545 26.8114 31.007C27.8075 30.9743 28.6903 30.5193 29.2933 29.8194Z" fill="black"/>
</svg>
