<svg width="56" height="56" viewBox="0 0 56 56" fill="none" xmlns="http://www.w3.org/2000/svg">
<rect width="56" height="56" rx="28" fill="#F6F8FB"/>
<path d="M30 6L50.7846 42H9.21539L30 6Z" fill="#9AE17B"/>
<circle cx="2.96296" cy="2.96296" r="2.96296" transform="matrix(-1 0 0 1 36.8147 24.3896)" fill="white"/>
<path d="M33.7471 24.3726C32.1584 24.4328 30.8888 25.7389 30.8887 27.3423C30.8887 28.5682 31.6311 29.62 32.6904 30.0747C33.9568 29.5724 34.8525 28.3373 34.8525 26.8921C34.8525 25.8954 34.4268 24.9982 33.7471 24.3726Z" fill="black"/>
<circle cx="2.96296" cy="2.96296" r="2.96296" transform="matrix(-1 0 0 1 28.8347 24.3901)" fill="white"/>
<path d="M25.7471 24.3706C24.1583 24.4308 22.8888 25.7368 22.8887 27.3403C22.8887 28.5662 23.631 29.618 24.6904 30.0728C25.9568 29.5705 26.8525 28.3353 26.8525 26.8901C26.8525 25.8935 26.4268 24.9962 25.7471 24.3706Z" fill="black"/>
</svg>
