<svg width="56" height="56" viewBox="0 0 56 56" fill="none" xmlns="http://www.w3.org/2000/svg">
<g clip-path="url(#clip0_47_3156)">
<rect width="56" height="56" rx="28" fill="#F6F8FB"/>
<rect x="8" y="15" width="39.5912" height="48" fill="#FF90C2"/>
<circle cx="3.50365" cy="3.50365" r="3.50365" transform="matrix(-1 0 0 1 30.7737 42.3511)" fill="white"/>
<path d="M27.146 42.3311C25.2676 42.4025 23.7663 43.9469 23.7661 45.8428C23.7661 47.292 24.6439 48.5353 25.896 49.0732C27.3938 48.4795 28.4536 47.0196 28.4536 45.3105C28.4536 44.1319 27.9499 43.0709 27.146 42.3311Z" fill="black"/>
<circle cx="3.50365" cy="3.50365" r="3.50365" transform="matrix(-1 0 0 1 21.3374 42.3516)" fill="white"/>
<path d="M17.686 42.3286C15.8075 42.4 14.3062 43.9443 14.3062 45.8403C14.3062 47.2896 15.1839 48.5329 16.436 49.0708C17.9338 48.4771 18.9935 47.0171 18.9937 45.3081C18.9937 44.1295 18.4899 43.0684 17.686 42.3286Z" fill="black"/>
</g>
<defs>
<clipPath id="clip0_47_3156">
<rect width="56" height="56" rx="28" fill="white"/>
</clipPath>
</defs>
</svg>
