<svg width="56" height="56" viewBox="0 0 56 56" fill="none" xmlns="http://www.w3.org/2000/svg">
<g clip-path="url(#clip0_47_3058)">
<rect width="56" height="56" rx="28" fill="#F6F8FB"/>
<path d="M32.1481 8L51.0279 17.092L55.6908 37.5216L42.6256 53.9049H21.6707L8.60544 37.5216L13.2684 17.092L32.1481 8Z" fill="#E09EE8"/>
<circle cx="2.96296" cy="2.96296" r="2.96296" transform="matrix(-0.186496 0.982456 0.982456 0.186496 41.7087 23.4429)" fill="white"/>
<path d="M41.12 26.4533C40.8829 28.0253 41.9293 29.5162 43.5046 29.8154C44.7089 30.044 45.8807 29.5107 46.5251 28.5548C46.2678 27.217 45.2213 26.1066 43.8015 25.8371C42.8223 25.6512 41.8614 25.9021 41.12 26.4533Z" fill="black"/>
<circle cx="2.96296" cy="2.96296" r="2.96296" transform="matrix(-0.0951198 0.995466 0.995466 0.0951198 34.6243 27.896)" fill="white"/>
<path d="M34.3114 30.9676C34.2202 32.5549 35.3995 33.943 36.9957 34.0956C38.2161 34.2122 39.3337 33.5732 39.8871 32.5619C39.5076 31.2535 38.3632 30.2444 36.9246 30.1068C35.9325 30.012 34.9988 30.3505 34.3114 30.9676Z" fill="black"/>
</g>
<defs>
<clipPath id="clip0_47_3058">
<rect width="56" height="56" rx="28" fill="white"/>
</clipPath>
</defs>
</svg>
