<svg width="56" height="56" viewBox="0 0 56 56" fill="none" xmlns="http://www.w3.org/2000/svg">
<rect width="56" height="56" rx="28" fill="#F6F8FB"/>
<path d="M27.5 2L53 27.5L27.5 53L2 27.5L27.5 2Z" fill="#09BD76"/>
<ellipse cx="3.70549" cy="3.72127" rx="3.70549" ry="3.72127" transform="matrix(-0.144982 -0.989435 -0.989868 0.141996 39.6025 34.8301)" fill="white"/>
<path d="M39.0669 31.04C38.706 29.0801 36.8501 27.7375 34.8555 28.0225C33.3338 28.2401 32.1629 29.3439 31.7895 30.7344C32.6428 32.2169 34.3423 33.1099 36.1406 32.8528C37.3773 32.6759 38.4131 31.9906 39.0669 31.04Z" fill="black"/>
<ellipse cx="3.70382" cy="3.72295" rx="3.70382" ry="3.72295" transform="matrix(0.0799344 -0.996801 -0.996943 -0.0781424 28.7476 35.686)" fill="white"/>
<path d="M29.0802 31.8399C29.1646 29.8533 27.655 28.1423 25.6469 27.9856C24.1108 27.8659 22.7184 28.6902 22.0433 29.9678C22.5451 31.5954 24.0017 32.8323 25.8112 32.9736C27.0605 33.0711 28.2284 32.6276 29.0802 31.8399Z" fill="black"/>
</svg>
